<svg width="24" height="20" viewBox="0 0 24 20" fill="none" xmlns="http://www.w3.org/2000/svg">
<g filter="url(#filter0_d)">
<path d="M18.5 0H5.50001C4.67285 0 4 0.628107 4 1.40026V9.80173C4 10.5739 4.67285 11.202 5.50001 11.202H18.5C19.3271 11.202 20 10.5739 20 9.80173V1.40026C20 0.628107 19.3271 0 18.5 0V0ZM18.5 0.933493C18.5679 0.933493 18.6325 0.94665 18.6916 0.969628L12 6.38361L5.30833 0.969628C5.36742 0.946681 5.43204 0.933493 5.49998 0.933493H18.5ZM18.5 10.2685H5.50001C5.22414 10.2685 5 10.0593 5 9.80169V1.95587L11.6724 7.35402C11.7666 7.43013 11.8833 7.46798 12 7.46798C12.1167 7.46798 12.2334 7.43016 12.3276 7.35402L19 1.95587V9.80173C19 10.0593 18.7759 10.2685 18.5 10.2685V10.2685Z" fill="#757575"/>
</g>
<defs>
<filter id="filter0_d" x="0" y="0" width="24" height="19.202" filterUnits="userSpaceOnUse" color-interpolation-filters="sRGB">
<feFlood flood-opacity="0" result="BackgroundImageFix"/>
<feColorMatrix in="SourceAlpha" type="matrix" values="0 0 0 0 0 0 0 0 0 0 0 0 0 0 0 0 0 0 127 0"/>
<feOffset dy="4"/>
<feGaussianBlur stdDeviation="2"/>
<feColorMatrix type="matrix" values="0 0 0 0 0 0 0 0 0 0 0 0 0 0 0 0 0 0 0.25 0"/>
<feBlend mode="normal" in2="BackgroundImageFix" result="effect1_dropShadow"/>
<feBlend mode="normal" in="SourceGraphic" in2="effect1_dropShadow" result="shape"/>
</filter>
</defs>
</svg>
