<svg aria-hidden="true" style="position:absolute;width:0;height:0" xmlns="http://www.w3.org/2000/svg" overflow="hidden"><defs><symbol id="icon-antenna" viewBox="0 0 32 32"><path fill="var(--color1, #212121)" d="M30.773 22.098l-8.443-8.505.937-4.615c.242.094.499.144.758.146h.006a2.159 2.159 0 10-2.008-1.435l-4.96.605L8.972.161a.534.534 0 00-.377-.16.532.532 0 00-.373.155L6.709 1.66a.534.534 0 000 .754l.814.826a14.943 14.943 0 002.519 17.663.513.513 0 00.146.098c-.034.18-.051.364-.052.547v6.187h-6.4a2.67 2.67 0 00-2.667 2.667v1.067c0 .295.239.533.533.533h24.533a.533.533 0 00.533-.533v-1.067a2.67 2.67 0 00-2.667-2.667h-6.4v-2.742a15.09 15.09 0 003.049.32 14.854 14.854 0 007.04-1.783l.818.823a.534.534 0 00.377.16.532.532 0 00.373-.155l1.513-1.504a.534.534 0 000-.754zM23.28 6.233a1.066 1.066 0 11.752 1.822h-.003a1.067 1.067 0 01-.747-1.823h-.002zm-1.256 3.505l-.598 2.946-1.175-1.182 1.774-1.763zm-.605-.902l-1.92 1.909-1.485-1.493 3.405-.415zM24.004 28.8a1.6 1.6 0 011.6 1.6v.533H2.137V30.4a1.6 1.6 0 011.6-1.6h20.267zm-7.467-2.133v1.067h-5.333v-1.067h5.333zM11.204 25.6v-4.053c0-1.294 1.196-2.347 2.667-2.347s2.667 1.053 2.667 2.347V25.6h-5.333zm6.4-1.696v-2.357c0-1.882-1.675-3.413-3.733-3.413a3.8 3.8 0 00-3.281 1.786A13.87 13.87 0 018.311 4.033l18.602 18.708a13.818 13.818 0 01-9.309 1.163zm11.289-.684L7.836 2.039l.755-.752 7.935 7.98c.004 0 .006.007.01.01l13.115 13.191-.757.752z"/><path fill="var(--color2, #2196f3)" d="M13.876 20.267h-.005a1.6 1.6 0 10-.004 3.2h.005a1.6 1.6 0 10.004-3.2zm.373 1.978a.534.534 0 01-.752-.756.534.534 0 01.373-.155.533.533 0 01.373.911h.005z"/></symbol><symbol id="icon-astronaut" viewBox="0 0 32 32"><path fill="var(--color2, #2196f3)" d="M31.974 4.524a.534.534 0 00-.43-.363l-1.91-.278-.855-1.731c-.179-.365-.777-.365-.956 0l-.855 1.731-1.91.278a.535.535 0 00-.296.91l1.383 1.348-.326 1.903c-.034.2.048.402.212.522a.53.53 0 00.562.04l1.709-.899 1.709.899a.536.536 0 00.775-.563l-.326-1.903 1.383-1.348a.536.536 0 00.135-.547zm-2.463 1.327a.534.534 0 00-.153.472l.191 1.114-1-.526a.533.533 0 00-.498 0l-1.001.526.191-1.114a.534.534 0 00-.153-.472l-.81-.789 1.119-.163a.532.532 0 00.402-.292l.5-1.013.5 1.013a.535.535 0 00.402.292l1.119.163-.809.789zM26.133 20.522h-1.067v1.067h1.067v-1.067zM26.133 22.656h-1.067v1.067h1.067v-1.067zM27.2 21.589h-1.067v1.067H27.2v-1.067zM25.067 21.589H24v1.067h1.067v-1.067zM22.4 26.389h-1.067v1.067H22.4v-1.067zM22.4 28.522h-1.067v1.067H22.4v-1.067zM23.467 27.456H22.4v1.067h1.067v-1.067zM21.333 27.456h-1.067v1.067h1.067v-1.067zM16 24.256h-1.067v1.067H16v-1.067zM16 26.389h-1.067v1.067H16v-1.067zM17.067 25.322H16v1.067h1.067v-1.067zM14.933 25.322h-1.067v1.067h1.067v-1.067zM5.866 6.122H4.799v1.067h1.067V6.122zM5.866 8.255H4.799v1.067h1.067V8.255z"/><path fill="var(--color2, #2196f3)" d="M6.933 7.189H5.866v1.067h1.067V7.189zM4.8 7.189H3.733v1.067H4.8V7.189z"/><path fill="var(--color1, #212121)" d="M24.715 14.159a1.775 1.775 0 00-1.188-.705 1.778 1.778 0 00-1.34.352l-1.252.96-1.898 1.417-1.358-.541c2.421-1.086 4.114-3.508 4.114-6.32 0-3.823-3.123-6.933-6.961-6.933s-6.961 3.11-6.961 6.933a6.86 6.86 0 001.12 3.758l-2.764-.024h-.005c-.009 0-.015.004-.023.005a.515.515 0 00-.155.031l-.038.013c-.006.003-.013.003-.019.006l-3.233 1.596-.001.001-1.893.911a.397.397 0 00-.063.035 1.779 1.779 0 00-.598 2.295c.22.429.595.745 1.056.889a1.776 1.776 0 001.378-.128l1.388-.738 2.264-1.169 1.357-.008L2.2 22.211l-.002.001-1.339 1.333c-.316.315-.49.732-.49 1.178s.174.863.49 1.179c.325.323.752.485 1.179.485s.854-.162 1.18-.485l1.314-1.309 1.741-1.3.901.897-1.762 1.754-.002.001-1.339 1.333c-.316.315-.49.732-.49 1.178s.174.863.49 1.179c.325.323.753.485 1.18.485s.855-.162 1.18-.485l3.482-3.467.001-.002 1.01-1-.004-.004c.006-.006.015-.009.022-.015l5.166-5.658 3.471.494a.52.52 0 00.262-.033c.018-.006.033-.015.05-.023.019-.01.039-.015.058-.027l3.213-2.133c.012-.008.018-.021.029-.029.013-.01.029-.014.041-.026l1.271-1.191c.662-.62.753-1.635.212-2.362zM2.13 17.77a.714.714 0 01-.558.052.717.717 0 01-.213-1.26l1.314-.632.449 1.313-.992.527zm3.498-1.828l-1.548.8-.439-1.283 2.027-1.001-.04 1.484zm15.099-6.62a5.79 5.79 0 01-.599 2.559l-4.181-1.899a1.863 1.863 0 00-.788-1.388l1.464-4.86c2.378.756 4.105 2.974 4.105 5.588zm-11.789 0c0-3.235 2.644-5.867 5.894-5.867.253 0 .5.021.745.052l-1.432 4.754c-.019-.001-.037-.006-.057-.006-1.033 0-1.873.837-1.873 1.867s.84 1.867 1.873 1.867c.694 0 1.294-.383 1.618-.945l3.862 1.755a5.894 5.894 0 01-4.737 2.39c-3.25 0-5.894-2.632-5.894-5.867zm5.956.8c0 .441-.362.8-.806.8s-.806-.359-.806-.8c0-.441.362-.8.806-.8s.806.359.806.8zM2.465 25.146a.608.608 0 01-.854.001.592.592 0 010-.844l.962-.959.851.848-.959.955zm3.214 3.734a.608.608 0 01-.855.001.592.592 0 010-.844l.963-.959.852.848-.96.955zm3.481-3.469l-.002.001-1.765 1.76-.852-.848 1.763-1.755.002-.001c.04-.04.065-.088.09-.135.007-.014.02-.026.026-.04.017-.041.019-.085.026-.129.003-.025.014-.047.014-.073 0-.036-.013-.07-.02-.106-.006-.032-.006-.065-.019-.095a.55.55 0 00-.091-.138c-.01-.012-.014-.027-.025-.038h-.001l-.001-.002-1.607-1.6c-.017-.017-.039-.024-.058-.038a.507.507 0 00-.087-.058.515.515 0 00-.093-.033.507.507 0 00-.103-.02.5.5 0 00-.095.005.53.53 0 00-.104.02.477.477 0 00-.094.045c-.02.011-.042.015-.061.029L4.23 23.486l-.901-.897 2.399-2.386 4.361 4.289-.928.919zm6.819-7.017c-.015-.002-.03.004-.045.003a.556.556 0 00-.3.075.492.492 0 00-.083.061c-.013.011-.028.017-.04.029l-4.698 5.146-4.328-4.257 2.833-2.818a.534.534 0 00-.379-.911v-.001l-2.219.013.028-1.607 3.104.027a6.947 6.947 0 004.981 2.101c.437 0 .864-.045 1.279-.123.04.032.079.065.13.085l2.41.96.152.758.178.885-3.003-.427zm4.041.178l-.313-1.558 1.446-1.08.947 1.257-2.08 1.381zm3.754-2.831l-.838.785-.931-1.236.831-.637a.735.735 0 01.543-.143.718.718 0 01.48.284.713.713 0 01-.085.947z"/><path fill="var(--color1, #212121)" d="M13.602 18.544l-2.143-2.133a.534.534 0 00-.753 0l-2.142 2.133a.537.537 0 000 .756l2.142 2.133a.536.536 0 00.753 0l2.143-2.133a.535.535 0 000-.756zm-2.519 1.759l-1.387-1.381 1.387-1.381 1.387 1.381-1.387 1.381zM17.164 5.071l-.258 1.036c.071.018 1.738.452 1.738 2.149h1.067c0-2.017-1.666-2.965-2.547-3.185zM19.711 9.322h-1.067v1.067h1.067V9.322z"/></symbol><symbol id="icon-client1" viewBox="0 0 30 32"><path fill="var(--color3, #afb1b8)" d="M4 0l4.872 4.468h13.59v12.465l4.872 4.468V0H4.001z"/><path fill="var(--color3, #afb1b8)" d="M0 4.28v20.79h22.667v-8.264L9.016 4.285.001 4.28zm18.349 17.749H3.587V8.047H4.63v13.035h13.719v.947zM6.527 28.991l.545-1.123h.456l-.794 1.497v.872h-.413v-.872l-.796-1.497h.457l.545 1.123zm2.341.695H7.95l-.192.552H7.33l.895-2.37h.369l.897 2.37h-.43l-.194-.552zm-.803-.332h.687l-.343-.983-.343.983zm2.426.244c0-.11.03-.21.09-.301.06-.092.177-.201.353-.327a1.538 1.538 0 01-.194-.296.58.58 0 01-.054-.236c0-.186.056-.332.169-.439a.629.629 0 01.456-.163c.173 0 .314.051.423.153a.487.487 0 01.166.376.52.52 0 01-.075.273.894.894 0 01-.246.247l-.161.117.457.54a.947.947 0 00.099-.435h.343c0 .292-.068.531-.205.718l.348.412h-.459l-.133-.158c-.169.127-.371.19-.605.19s-.422-.062-.563-.186a.622.622 0 01-.21-.487zm.784.356a.603.603 0 00.374-.133l-.518-.61-.05.036c-.13.099-.195.212-.195.339 0 .11.035.199.106.267s.165.103.283.103zm-.218-1.526c0 .091.056.206.168.343l.181-.124.05-.041a.294.294 0 00.101-.23.207.207 0 00-.07-.158.25.25 0 00-.177-.067c-.077 0-.138.026-.184.078s-.068.118-.068.197zm4.305 1.038c-.024.253-.117.45-.28.592-.163.141-.379.212-.649.212a.943.943 0 01-.5-.133c-.143-.09-.254-.218-.332-.383s-.119-.356-.122-.575v-.221c0-.224.04-.42.119-.591s.193-.302.34-.394a.957.957 0 01.514-.138c.262 0 .472.071.632.213s.252.343.278.602h-.41c-.02-.17-.069-.293-.15-.368-.079-.076-.196-.114-.35-.114a.482.482 0 00-.413.197c-.095.13-.144.322-.146.575v.21c0 .256.046.451.137.586s.227.202.404.202c.162 0 .283-.036.365-.109s.133-.194.155-.363h.41zm2.261-.351c0 .232-.04.436-.12.612a.914.914 0 01-.345.404.95.95 0 01-.514.14.957.957 0 01-.514-.14.927.927 0 01-.348-.402 1.424 1.424 0 01-.124-.601v-.133c0-.231.041-.435.122-.612a.918.918 0 01.347-.405c.15-.094.321-.142.514-.142s.364.047.513.14c.15.092.265.226.347.4.081.174.123.376.124.607v.132zm-.412-.124c0-.263-.05-.464-.15-.604a.485.485 0 00-.422-.21.487.487 0 00-.418.21c-.1.139-.151.336-.153.591v.137c0 .26.05.462.151.604a.492.492 0 00.423.213.483.483 0 00.42-.208c.099-.139.148-.342.148-.609v-.124z"/></symbol><symbol id="icon-client2" viewBox="0 0 25 32"><path fill="var(--color3, #afb1b8)" d="M10.447 1.806h.084c.156 0 .324.016.49.03.734.052 1.463.162 2.179.329V.403a12.97 12.97 0 00-2.25-.358 18.11 18.11 0 00-.909-.044h-.263a18.35 18.35 0 00-4.515.582 18.3 18.3 0 00-4.79 1.948v17.475a19.484 19.484 0 014.566-1.779 19.948 19.948 0 013.833-.588h.051c.216-.011.433-.017.655-.019v-1.79a21.155 21.155 0 00-4.982.662 23.81 23.81 0 00-1.731.513l-.623.211V3.591l.266-.128a17.409 17.409 0 016.471-1.651.523.523 0 01.056 0c.248-.013.497-.019.741-.019h.28c.129.003.258.006.388.014z"/><path fill="var(--color3, #afb1b8)" d="M14.837 3.651a15.823 15.823 0 01-2.606-.211c-.277-.047-.55-.103-.814-.164v17.275a13.82 13.82 0 003.425.404 18.396 18.396 0 004.515-.581 18.362 18.362 0 004.792-1.948V1.263a19.58 19.58 0 01-4.564 1.781 19.388 19.388 0 01-4.747.609zm6.908.299l.623-.21v13.63l-.266.128a17.055 17.055 0 01-3.184 1.144c-1.331.344-2.7.522-4.074.527-.411 0-.819-.017-1.214-.052l-.427-.038V5.062l.497.033c.361.023.735.034 1.141.034a21.092 21.092 0 005.173-.663 26.802 26.802 0 001.731-.518zM1.684 25.977a.912.912 0 00-.693-.28 1.034 1.034 0 00-.4.075.91.91 0 00-.512.518 1.023 1.023 0 00-.072.387v2.335c-.006.165.026.328.092.479.055.12.135.226.233.313a.815.815 0 00.321.166c.114.032.231.048.349.049a.972.972 0 00.892-.61.951.951 0 00.075-.372v-.261h-.61v.208a.528.528 0 01-.036.208.359.359 0 01-.089.131.365.365 0 01-.128.067.425.425 0 01-.128.022.314.314 0 01-.286-.125.548.548 0 01-.081-.313v-2.177a.738.738 0 01.075-.349.312.312 0 01.299-.14.33.33 0 01.272.131c.068.09.104.2.101.313v.202h.604v-.238a1.093 1.093 0 00-.279-.737zM5.31 25.95a1.091 1.091 0 00-.694-.257 1.075 1.075 0 00-.364.066.965.965 0 00-.559.518 1.099 1.099 0 00-.089.452v2.239a1.08 1.08 0 00.089.459c.055.12.136.227.237.313a.94.94 0 00.322.197 1.028 1.028 0 00.728 0c.121-.044.233-.111.33-.197a.948.948 0 00.23-.313c.063-.144.093-.301.089-.459v-2.239a1.08 1.08 0 00-.089-.452 1.015 1.015 0 00-.23-.327zm-.285 3.019a.405.405 0 01-.121.324.445.445 0 01-.574 0 .397.397 0 01-.121-.324V26.73a.405.405 0 01.121-.324.445.445 0 01.574 0 .397.397 0 01.121.324v2.239zM10.072 29.969V25.73h-.587l-.771 2.244h-.011l-.777-2.244h-.581v4.239h.606V27.39h.011l.593 1.823h.302l.598-1.823h.011v2.579h.606zM13.513 26.027a.844.844 0 00-.342-.232 1.363 1.363 0 00-.439-.066h-.9v4.239h.604v-1.656h.311c.188.009.376-.031.545-.116a.882.882 0 00.332-.324 1.02 1.02 0 00.139-.369c.024-.16.035-.321.033-.482a2.421 2.421 0 00-.059-.606.898.898 0 00-.223-.39zm-.312 1.293a.547.547 0 01-.056.221.346.346 0 01-.156.149.619.619 0 01-.285.053h-.276v-1.441h.311a.578.578 0 01.272.053.352.352 0 01.142.156.624.624 0 01.053.236v.282c0 .099.006.2 0 .291H13.2zM16.374 25.73h-.495l-.934 4.239h.604l.177-.911h.823l.177.911h.604l-.957-4.239zm-.557 2.751l.297-1.537h.011l.296 1.537h-.604zM20.277 28.283h-.011l-.912-2.554h-.581v4.239h.604v-2.549h.012l.923 2.549h.568v-4.239h-.604v2.554zM23.968 25.73l-.486 1.685h-.012l-.486-1.685h-.64l.83 2.447v1.792h.604v-1.792l.83-2.447h-.64zM0 31.166h.291v.817h.198v-.817h.29v-.167H.001v.167zM2.447 30.999l-.381.984h.21l.081-.224h.392l.084.224h.215l-.391-.984h-.21zm-.031.594l.134-.365.134.365h-.268zM4.866 31.62h.227v.127a.382.382 0 01-.234.083.244.244 0 01-.209-.093.411.411 0 01-.073-.257c0-.219.095-.329.283-.329a.206.206 0 01.222.157l.195-.038c-.042-.192-.181-.289-.417-.289a.495.495 0 00-.344.127.494.494 0 00-.141.379.532.532 0 00.126.369.477.477 0 00.374.144.59.59 0 00.417-.157v-.388h-.427v.166zM7.337 30.999h-.199v.984h.69v-.167h-.49v-.817zM9.426 30.999h-.199v.984h.199v-.984zM11.469 31.656l-.403-.657h-.193v.984h.185v-.643l.395.643h.198v-.984h-.182v.657zM13.315 31.549h.49v-.167h-.49v-.216h.528v-.167h-.727v.984h.747v-.167h-.548v-.266zM17.792 31.387h-.388v-.388h-.198v.984h.198v-.43h.388v.43h.198v-.984h-.198v.388zM19.649 31.549h.492v-.167h-.492v-.216h.529v-.167h-.727v.984h.746v-.167h-.548v-.266zM22.168 31.549c.171-.027.258-.117.258-.274a.236.236 0 00-.096-.219.553.553 0 00-.288-.058h-.417v.984h.198v-.412h.039a.261.261 0 01.123.022.21.21 0 01.07.072l.215.313h.237l-.12-.192a.685.685 0 00-.218-.236zm-.199-.136h-.146v-.247h.156a.526.526 0 01.201.023c.014.013.026.029.033.046a.133.133 0 01-.005.111.128.128 0 01-.037.043.547.547 0 01-.201.023zM24.067 31.549h.49v-.167h-.49v-.216h.529v-.167h-.729v.984h.747v-.167h-.548v-.266z"/></symbol><symbol id="icon-client3" viewBox="0 0 31 32"><path fill="var(--color3, #afb1b8)" d="M4.835 30.852a.093.093 0 01.061.025l.157.159a1.28 1.28 0 01-.441.302 1.622 1.622 0 01-.625.109 1.586 1.586 0 01-.588-.101 1.276 1.276 0 01-.443-.286 1.28 1.28 0 01-.286-.441 1.55 1.55 0 01-.1-.566 1.442 1.442 0 01.108-.568 1.311 1.311 0 01.774-.729c.193-.069.399-.103.606-.101a1.55 1.55 0 01.562.092c.155.062.298.148.421.255l-.131.17a.14.14 0 01-.033.031.09.09 0 01-.053.013.127.127 0 01-.057-.018l-.071-.045-.098-.058a1.172 1.172 0 00-.131-.056 1.3 1.3 0 00-.411-.063 1.19 1.19 0 00-.435.076.993.993 0 00-.341.213.978.978 0 00-.221.34 1.213 1.213 0 00-.08.449c-.002.155.025.309.08.456.048.125.122.24.218.338.09.092.201.164.325.21.128.049.265.074.404.072.08.001.16-.004.239-.014a.923.923 0 00.518-.233.118.118 0 01.074-.029zM9.362 30.052c.002.192-.033.383-.106.563-.064.163-.165.312-.295.437s-.289.222-.463.287a1.802 1.802 0 01-1.191 0 1.36 1.36 0 01-.461-.288 1.28 1.28 0 01-.298-.441 1.554 1.554 0 010-1.127c.067-.164.168-.315.298-.443.131-.12.288-.215.461-.277a1.765 1.765 0 011.191 0 1.293 1.293 0 01.758.724c.073.181.108.373.106.566zm-.412 0a1.248 1.248 0 00-.075-.452.928.928 0 00-.21-.338.915.915 0 00-.331-.213 1.3 1.3 0 00-.866 0 .92.92 0 00-.543.551c-.1.294-.1.61 0 .905a.92.92 0 00.212.338.926.926 0 00.331.212c.279.096.587.096.866 0a.913.913 0 00.331-.212.973.973 0 00.21-.338c.053-.146.078-.299.075-.452zM12.45 30.526l.041.101c.016-.036.029-.069.045-.101a.925.925 0 01.051-.099l1.001-1.68c.02-.029.037-.047.057-.052a.228.228 0 01.082-.009h.296v2.733h-.351v-2.01-.085a.737.737 0 010-.094l-1.007 1.704c-.013.026-.033.047-.059.062s-.056.023-.086.023h-.057a.16.16 0 01-.145-.085l-1.037-1.715v2.195h-.339v-2.728h.296a.25.25 0 01.082.009c.024.011.044.03.055.052l1.023 1.682c.02.031.037.064.051.098zM16.219 30.39v1.024h-.392v-2.729h.874c.165-.003.33.017.488.06a.945.945 0 01.345.17.705.705 0 01.196.268c.046.111.069.23.067.349a.813.813 0 01-.073.349.738.738 0 01-.212.273.984.984 0 01-.347.181 1.567 1.567 0 01-.472.063l-.474-.007zm0-.293h.474c.103.001.206-.013.304-.042a.641.641 0 00.22-.118.481.481 0 00.133-.181.554.554 0 00.047-.23c.005-.076-.009-.152-.039-.222s-.077-.134-.137-.186a.803.803 0 00-.527-.146h-.474v1.125zM21.486 31.418h-.31a.143.143 0 01-.086-.025.171.171 0 01-.051-.063l-.267-.66h-1.338l-.276.66a.143.143 0 01-.137.089h-.31l1.176-2.733h.408l1.192 2.733zm-1.94-1.015h1.105l-.466-1.113a1.812 1.812 0 01-.088-.257l-.045.143a1.464 1.464 0 01-.043.116l-.462 1.111zM23.18 28.697a.176.176 0 01.059.049l1.715 2.06v-.096-2.026h.351v2.733h-.196a.182.182 0 01-.08-.016.208.208 0 01-.063-.051l-1.713-2.059a.737.737 0 010 .094v2.031h-.351v-2.733h.208a.168.168 0 01.07.013zM28.193 30.33v1.085h-.392V30.33l-1.084-1.646h.351c.03-.002.06.007.084.024a.256.256 0 01.053.061l.678 1.062a1.113 1.113 0 01.12.243l.051-.118a.885.885 0 01.067-.125l.668-1.069a.28.28 0 01.051-.058.12.12 0 01.084-.027h.355l-1.086 1.654zM12.256 24.097c.171.02.343.036.517.051 2.644-1.092 4.881-2.879 6.431-5.138s2.344-4.889 2.284-7.563l-2.914-2.69c.593 2.846.315 5.788-.8 8.498s-3.026 5.078-5.518 6.842z"/><path fill="var(--color3, #afb1b8)" d="M11.216 23.972l.078.014c2.662-1.758 4.692-4.212 5.827-7.046s1.322-5.917.538-8.85l-4.151-3.831c1.679 3.149 2.355 6.674 1.949 10.164s-1.877 6.802-4.242 9.55zM25.292 14.605c-.705 2.937-2.418 5.587-4.884 7.554a15.425 15.425 0 01-2.32 1.538c2.008-.545 3.853-1.508 5.394-2.815s2.736-2.924 3.493-4.724l-1.683-1.552z"/><path fill="var(--color3, #afb1b8)" d="M24.632 14.173l-2.397-2.212c-.046 2.522-.823 4.987-2.25 7.139s-3.452 3.911-5.865 5.095h.012c.538 0 1.075-.03 1.609-.089 2.255-.85 4.247-2.201 5.799-3.934s2.614-3.794 3.093-5.998zM11.562 2.643L8.703 0C6.147.912 3.949 2.515 2.396 4.599S.008 9.151 0 11.681c.01 2.795 1.029 5.507 2.896 7.707s4.476 3.762 7.414 4.44c2.622-2.949 4.158-6.593 4.383-10.403s-.871-7.586-3.131-10.781zM31.238 13.766c-.01-3.316-1.442-6.494-3.982-8.838s-5.983-3.666-9.575-3.676a14.393 14.393 0 00-4.854.834l17.506 16.159c.599-1.428.906-2.947.905-4.479z"/></symbol><symbol id="icon-client4" viewBox="0 0 60 32"><path fill="var(--color3, #afb1b8)" d="M9.229 9.548h-.002c-1.684 0-3.048 1.33-3.048 2.971v.002c0 1.641 1.365 2.971 3.048 2.971h.002c1.684 0 3.048-1.33 3.048-2.971v-.002c0-1.641-1.365-2.971-3.048-2.971zM31.73 8.599c-.005-2.279-.936-4.463-2.589-6.074S25.247.006 22.908.001c-2.339.004-4.581.911-6.235 2.523S14.087 6.32 14.083 8.6v12.566S31.728 19.251 31.73 8.602V8.6zM0 25.289c.004 1.586.652 3.105 1.803 4.226s2.709 1.753 4.336 1.758c1.627-.005 3.185-.636 4.336-1.757s1.799-2.64 1.803-4.225v-8.744S0 17.881 0 25.289zm6.139 1.567c-.318 0-.629-.092-.893-.264s-.47-.417-.592-.703-.154-.601-.091-.905c.062-.304.215-.583.44-.802s.511-.368.823-.429c.312-.06.635-.029.929.089s.545.319.721.577a1.537 1.537 0 01.15 1.471 1.585 1.585 0 01-.87.851c-.195.079-.405.12-.617.12v-.006zM18.671 25.884h-1.256v1.297h-.654v-3.174h2.067v.53h-1.413v.82h1.256v.528zm3.144-.218c0 .312-.055.587-.166.822s-.269.417-.475.545c-.205.128-.44.192-.706.192-.263 0-.498-.063-.704-.19s-.366-.307-.48-.541a1.867 1.867 0 01-.172-.811v-.157c0-.312.056-.587.168-.824a1.26 1.26 0 01.477-.547c.206-.128.442-.192.706-.192s.499.064.704.192c.206.126.366.309.477.547.113.237.17.511.17.822v.142zm-.663-.144c0-.333-.06-.586-.179-.759s-.289-.259-.51-.259a.583.583 0 00-.508.257c-.119.17-.18.42-.181.75v.155c0 .324.06.576.179.754s.291.268.515.268a.579.579 0 00.506-.257c.118-.173.177-.424.179-.754v-.155zm2.784.826a.331.331 0 00-.131-.283c-.087-.067-.244-.137-.471-.209a3.375 3.375 0 01-.538-.218c-.36-.195-.541-.457-.541-.787 0-.172.048-.324.144-.458a.945.945 0 01.416-.316 1.57 1.57 0 01.611-.113c.227 0 .429.041.606.124a.946.946 0 01.412.347c.099.15.148.32.148.51h-.654a.427.427 0 00-.137-.338c-.092-.081-.22-.122-.386-.122a.602.602 0 00-.373.102.317.317 0 00-.133.266c0 .103.052.19.155.259.105.07.258.135.46.196.372.112.643.251.813.416s.255.372.255.619a.767.767 0 01-.312.648c-.208.156-.488.233-.839.233-.244 0-.467-.044-.667-.133a1.07 1.07 0 01-.46-.368.945.945 0 01-.157-.541h.656c0 .35.209.525.628.525a.61.61 0 00.364-.094.313.313 0 00.131-.266zm3.491-1.812h-.972v2.645h-.654v-2.645h-.959v-.53h2.586v.53zm2.285 1.269h-1.256v.85h1.474v.525h-2.128v-3.174h2.124v.53h-1.47v.757h1.256v.512zm1.777.214h-.521v1.162h-.654v-3.174h1.18c.375 0 .664.084.868.251s.305.403.305.709a.973.973 0 01-.142.543.95.95 0 01-.425.344l.687 1.297v.03h-.702l-.595-1.162zm-.522-.53h.528c.164 0 .291-.041.382-.124.09-.084.135-.2.135-.347a.476.476 0 00-.129-.353c-.084-.086-.214-.129-.39-.129h-.525v.953zm3.964.574v1.118h-.654v-3.174h1.238c.238 0 .448.044.628.131a.964.964 0 01.419.373c.097.16.146.342.146.547 0 .311-.107.557-.32.737-.212.179-.507.268-.883.268h-.573zm0-.53h.584c.173 0 .305-.041.395-.122.092-.081.137-.198.137-.349 0-.156-.046-.281-.137-.377s-.218-.145-.379-.148h-.6v.996zm4.138.272h-1.256v.85h1.474v.525h-2.128v-3.174h2.124v.53h-1.469v.757h1.256v.512zm3.035-1.269h-.972v2.645h-.654v-2.645h-.959v-.53h2.586v.53zm2.285 1.269h-1.256v.85h1.474v.525h-2.128v-3.174h2.124v.53h-1.469v.757h1.256v.512zm1.777.214h-.521v1.162h-.654v-3.174h1.18c.375 0 .664.084.868.251s.305.403.305.709a.973.973 0 01-.142.543.95.95 0 01-.425.344l.687 1.297v.03h-.702l-.595-1.162zm-.521-.53h.528c.164 0 .291-.041.382-.124.09-.084.135-.2.135-.347a.476.476 0 00-.129-.353c-.084-.086-.214-.129-.39-.129h-.525v.953zm3.844.859a.331.331 0 00-.131-.283c-.087-.067-.244-.137-.471-.209a3.432 3.432 0 01-.539-.218c-.36-.195-.541-.457-.541-.787 0-.172.048-.324.144-.458a.945.945 0 01.416-.316c.182-.076.385-.113.61-.113.227 0 .429.041.606.124a.946.946 0 01.412.347c.099.15.148.32.148.51h-.654a.427.427 0 00-.137-.338c-.092-.081-.22-.122-.386-.122a.602.602 0 00-.373.102.317.317 0 00-.133.266c0 .103.052.19.155.259.105.07.258.135.46.196.372.112.643.251.813.416s.255.372.255.619a.767.767 0 01-.312.648c-.208.156-.488.233-.839.233-.244 0-.467-.044-.667-.133a1.07 1.07 0 01-.46-.368.945.945 0 01-.157-.541h.656c0 .35.209.525.628.525a.61.61 0 00.364-.094.313.313 0 00.131-.266z"/></symbol><symbol id="icon-client5" viewBox="0 0 40 32"><path fill="var(--color3, #afb1b8)" d="M3.055 26.742c.156.194.24.438.236.688a1.092 1.092 0 01-.365.869 1.575 1.575 0 01-1.061.317H0v-4.361h1.827c.361-.024.718.078 1.012.29a.998.998 0 01.354.816c.011.241-.065.477-.212.667a.997.997 0 01-.556.341c.247.045.471.177.63.373zm-2.187-.658h.781a.736.736 0 00.496-.145.515.515 0 00.167-.426.526.526 0 00-.165-.426.75.75 0 00-.511-.147H.868v1.144zm1.354 1.672a.54.54 0 00.185-.443.56.56 0 00-.188-.448.803.803 0 00-.53-.158H.87v1.199h.83a.822.822 0 00.524-.151zM6.79 28.617l-1.016-1.704h-.382v1.704h-.874v-4.361h1.655c.417-.029.83.104 1.152.371a1.394 1.394 0 01.123 1.804 1.342 1.342 0 01-.789.443l1.082 1.743H6.79zm-1.399-2.299h.715c.497 0 .745-.22.745-.66a.641.641 0 00-.183-.49.771.771 0 00-.562-.177h-.724l.008 1.327zM11.568 27.739H9.826l-.308.878h-.917l1.6-4.312h.991l1.593 4.312h-.917l-.301-.878zm-.233-.66l-.637-1.841-.637 1.841h1.273zM17.55 28.617h-.868l-1.946-2.965v2.965h-.866v-4.361h.866l1.946 2.983v-2.983h.868v4.361zM22.502 27.573a1.877 1.877 0 01-.785.769 2.546 2.546 0 01-1.22.275h-1.545v-4.361h1.545c.422-.011.841.081 1.22.268.332.168.606.433.785.761a2.541 2.541 0 010 2.288zm-.993-.104a1.601 1.601 0 000-2.082 1.506 1.506 0 00-1.086-.371h-.603v2.823h.603a1.5 1.5 0 001.086-.371zM12.111 0s11.201 4.246 10.963 10.39v10.392S11.881 16.534 12.115 10.39L12.111 0zM33.054 18.349a15.301 15.301 0 017.117-2.633v-3.253a14.62 14.62 0 00-7.117 5.886z"/><path fill="var(--color3, #afb1b8)" d="M31.783 19.329a15.237 15.237 0 018.388-7.548V2.407S24.219 8.455 24.557 17.204v14.795s.711-.27 1.829-.778c0-.473 0-.95.051-1.43a15.387 15.387 0 015.347-10.464z"/><path fill="var(--color3, #afb1b8)" d="M30.266 24.825a15.35 15.35 0 01.558-3.029 14.323 14.323 0 00-3.377 8.937 46.367 46.367 0 003.068-1.623 15.355 15.355 0 01-.248-4.284zM30.9 24.878a14.705 14.705 0 00.197 3.879c4.358-2.618 9.255-6.664 9.067-11.553v-.426a14.276 14.276 0 00-8.292 3.89 14.648 14.648 0 00-.972 4.21z"/></symbol><symbol id="icon-client6" viewBox="0 0 62 32"><path fill="var(--color3, #afb1b8)" d="M31.124 14.854a2.264 2.264 0 01-.397-1.431v-2.075c0-.636.132-1.119.395-1.45s.715-.495 1.356-.494c.602 0 1.029.141 1.282.422.276.359.41.798.379 1.241v.488h-1.077v-.494a2.787 2.787 0 00-.031-.483.482.482 0 00-.154-.287.587.587 0 00-.39-.112.619.619 0 00-.41.118.563.563 0 00-.178.317 2.594 2.594 0 00-.042.513v2.518c-.017.243.031.486.138.707.054.075.128.134.215.171s.183.051.278.04a.545.545 0 00.381-.114.521.521 0 00.161-.306c.025-.167.036-.336.033-.505v-.511h1.077v.466c.03.462-.101.92-.372 1.304-.248.308-.669.462-1.289.462s-1.088-.165-1.353-.507zM35.607 14.876c-.272-.323-.408-.794-.408-1.416v-2.182c0-.616.136-1.083.408-1.399s.727-.474 1.364-.473c.633 0 1.086.158 1.358.473.272.317.41.783.41 1.399v2.182c0 .616-.138 1.089-.415 1.414s-.727.488-1.353.488-1.09-.165-1.364-.485zm1.866-.524c.097-.202.142-.424.129-.646v-2.672a1.275 1.275 0 00-.127-.633c-.055-.076-.131-.137-.22-.174s-.187-.05-.284-.037c-.097-.013-.195 0-.285.037s-.166.097-.221.174a1.255 1.255 0 00-.129.633v2.685c-.014.222.031.444.129.646.063.068.14.123.227.16a.708.708 0 00.554 0 .664.664 0 00.227-.16v-.013zM40.035 9.468h1.159l.872 4.027.892-4.027h1.128l.114 5.812h-.834l-.089-4.04-.861 4.04h-.669l-.892-4.054-.082 4.054h-.843l.105-5.812zM45.5 9.468h1.806c1.04 0 1.561.55 1.561 1.65 0 1.054-.548 1.58-1.643 1.579h-.615v2.583h-1.115l.007-5.812zm1.542 2.484c.11.013.222.004.328-.028s.203-.085.285-.156c.128-.196.184-.427.16-.656a1.999 1.999 0 00-.053-.528c-.016-.058-.044-.112-.082-.159s-.086-.087-.141-.117a1.072 1.072 0 00-.497-.093h-.432v1.737h.432zM50.474 9.468h1.197l1.228 5.812H51.86l-.243-1.34h-1.068l-.25 1.34h-1.055l1.228-5.812zm1.023 3.799l-.417-2.44-.417 2.44h.834zM53.891 9.468h.78l1.494 3.316V9.468h.925v5.812h-.742l-1.503-3.461v3.461h-.956l.002-5.812zM59.258 13.064l-1.242-3.588h1.046l.758 2.305.711-2.305h1.023l-1.226 3.588v2.216h-1.07v-2.216zM32.845 17.822v.304h-.91v2.362h-.381v-2.362h-.914v-.304h2.205zM35.697 20.488h-.294a.124.124 0 01-.083-.025.139.139 0 01-.049-.061l-.263-.633h-1.262l-.263.633a.177.177 0 01-.04.072.122.122 0 01-.083.025h-.294l1.115-2.666h.388l1.128 2.655zm-1.847-.99h1.052l-.446-1.085a2.234 2.234 0 01-.083-.251l-.042.141-.04.112-.441 1.083zM37.618 20.226a1.071 1.071 0 00.388-.032c.055-.013.108-.029.16-.049.049-.019.098-.042.149-.065v-.599h-.446c-.011.001-.022-.001-.032-.005a.081.081 0 01-.045-.039.05.05 0 01-.005-.027v-.205h.865v1.022a1.521 1.521 0 01-.47.218 1.86 1.86 0 01-.279.055 3.22 3.22 0 01-.326.017 1.56 1.56 0 01-.562-.099 1.34 1.34 0 01-.446-.279 1.3 1.3 0 01-.288-.422 1.459 1.459 0 01-.103-.553c-.002-.19.032-.379.1-.557.064-.158.162-.302.288-.422.127-.12.279-.214.446-.277.191-.068.394-.102.597-.099.104 0 .207.008.31.023a1.393 1.393 0 01.488.174c.068.042.133.088.194.139l-.107.165a.098.098 0 01-.087.051.136.136 0 01-.069-.021 1.538 1.538 0 01-.109-.063.975.975 0 00-.149-.072 1.301 1.301 0 00-.205-.059 1.574 1.574 0 00-.283-.023 1.187 1.187 0 00-.43.074.93.93 0 00-.328.211.943.943 0 00-.207.331c-.1.289-.1.6 0 .889a.964.964 0 00.549.547c.142.046.292.064.441.053zM41.172 20.184h1.217v.304h-1.59v-2.666h.381l-.009 2.362zM43.656 20.488h-.381v-2.666h.381v2.666zM45.074 17.834a.183.183 0 01.058.049l1.63 2.009a.753.753 0 010-.095V17.81h.332v2.676h-.192a.17.17 0 01-.083-.015.196.196 0 01-.06-.051l-1.628-2.007v2.073h-.319V17.82h.198c.022 0 .043.004.062.013zM49.901 17.822v.293H48.55v.88h1.095v.283H48.55v.91h1.351v.293h-1.743v-2.659h1.743zM9.95 1.359L26.879 5.91v15.946L9.95 17.308V1.36zM8.864 0v18.082l19.098 5.135V5.137L8.864 0z"/><path fill="var(--color3, #afb1b8)" d="M19.1 31.611L0 26.472V8.392l19.1 5.137v18.082z"/><path fill="var(--color3, #afb1b8)" d="M9.181 1.155l16.708 4.493-7.105 6.729-16.71-4.496 7.108-6.726zM8.864 0L0 8.392l19.1 5.137 8.862-8.392L8.864 0zM20.175 30.593l7.788-7.374-7.788-2.096v9.47z"/></symbol><symbol id="icon-clock" viewBox="0 0 32 32"><path fill="var(--color1, #212121)" d="M31.297 15.301C31.295 6.849 24.442-.002 15.989 0S.686 6.855.688 15.308a15.304 15.304 0 0010.649 14.576.662.662 0 00.529-.065.637.637 0 00.283-.356l3.865-12.25a1.912 1.912 0 10-.84-3.635l-5.106-5.107a.637.637 0 00-.902.902l5.103 5.109a1.876 1.876 0 00.536 2.309l-3.683 11.673C3.844 25.783.118 17.71 2.799 10.432S13.553-.572 20.831 2.109s11.004 10.754 8.323 18.032a14.042 14.042 0 01-7.462 7.973l-.398-1.874a.638.638 0 00-1.048-.344l-3.837 3.426a.637.637 0 00.231 1.084l4.899 1.563a.638.638 0 00.819-.74l-.391-1.839a15.255 15.255 0 009.329-14.089zm-15.305-.637a.638.638 0 110 1.277.638.638 0 010-1.277zm2.101 14.864l2.184-1.948.603 2.84-2.787-.892z"/><path fill="var(--color2, #2196f3)" d="M15.354 3.185V4.46a.638.638 0 101.276 0V3.185a.638.638 0 00-1.276 0zM3.876 14.664a.638.638 0 000 1.276h1.275a.638.638 0 100-1.276H3.876zM28.108 15.939a.638.638 0 100-1.276h-1.275a.638.638 0 000 1.276h1.275z"/></symbol><symbol id="icon-diagram" viewBox="0 0 32 32"><path fill="var(--color2, #2196f3)" d="M14.926 14.965h1.066v4.798h-1.066v-4.797zM19.19 17.097h1.066v2.665H19.19v-2.665zM10.661 18.696h1.066v1.066h-1.066v-1.066zM7.463 18.163h1.066v1.599H7.463v-1.599z"/><path fill="var(--color1, #212121)" d="M1.599 28.291h25.587a1.6 1.6 0 001.599-1.599V24.56a1.6 1.6 0 00-1.599-1.599h-.533V9.668L29.681 6.8a1.608 1.608 0 10-.746-.763L26.654 8.2V6.97a1.6 1.6 0 00-1.599-1.599H3.733A1.6 1.6 0 002.134 6.97v15.992h-.533a1.6 1.6 0 00-1.599 1.599v2.132a1.6 1.6 0 001.599 1.599zM30.384 4.837a.533.533 0 110 1.067.533.533 0 010-1.067zM3.198 6.969c0-.294.239-.533.533-.533h21.322c.294 0 .533.239.533.533v2.239l-1.066 1.013V8.035a.533.533 0 00-.533-.533H4.797a.533.533 0 00-.533.533v13.326c0 .294.239.533.533.533h19.19a.533.533 0 00.533-.533v-9.674l1.066-1.01v12.284H3.198V6.969zm4.798 6.93a1.598 1.598 0 101.107 2.749l1.853.93a.532.532 0 00.636-.123l3.939-4.431 3.872 2.901a.533.533 0 00.686-.039l3.365-3.188v8.131H5.33V8.569h18.124v2.66l-3.771 3.572-3.904-2.927a.533.533 0 00-.718.072l-3.993 4.493-1.493-.746c.011-.064.018-.129.02-.193a1.6 1.6 0 00-1.599-1.599zm.533 1.599a.533.533 0 11-1.067 0 .533.533 0 011.067 0zm3.198 8.528h5.331v.533a.533.533 0 01-.533.533h-4.264a.533.533 0 01-.533-.533v-.533zm-10.661.534c0-.294.239-.533.533-.533h9.062v.533a1.6 1.6 0 001.599 1.599h4.264a1.6 1.6 0 001.599-1.599v-.533h9.062c.294 0 .533.239.533.533v2.132a.533.533 0 01-.533.533H1.598a.533.533 0 01-.533-.533V24.56z"/></symbol><symbol id="icon-envelope" viewBox="0 0 38 32"><path fill="var(--color4, #757575)" d="M29.6 0H8.8C7.477 0 6.4 1.005 6.4 2.24v13.442c0 1.235 1.077 2.24 2.4 2.24h20.8c1.323 0 2.4-1.005 2.4-2.24V2.24C32 1.005 30.923 0 29.6 0zm0 1.494c.109 0 .212.021.307.058L19.2 10.214 8.493 1.552a.842.842 0 01.307-.058h20.8zm0 14.936H8.8c-.441 0-.8-.335-.8-.747V3.13l10.676 8.637c.151.122.337.182.524.182s.373-.06.524-.182L30.4 3.13v12.553c0 .412-.359.747-.8.747z"/></symbol><symbol id="icon-facebook" viewBox="0 0 32 32"><path fill="var(--color3, #afb1b8)" d="M18.422 11.142h1.328V8.829a17.317 17.317 0 00-1.935-.102c-1.915 0-3.226 1.204-3.226 3.418v2.037h-2.113v2.585h2.113v6.505h2.59v-6.505h2.027l.322-2.585h-2.35v-1.781c.001-.747.202-1.259 1.243-1.259z"/></symbol><symbol id="icon-instagram" viewBox="0 0 32 32"><path fill="var(--color3, #afb1b8)" d="M23.258 13.004c-.034-.773-.159-1.304-.338-1.765a3.557 3.557 0 00-.841-1.29 3.589 3.589 0 00-1.287-.838c-.463-.179-.992-.304-1.764-.338-.779-.037-1.026-.046-3.001-.046s-2.222.009-2.998.043c-.773.034-1.304.159-1.764.338a3.557 3.557 0 00-1.29.841 3.589 3.589 0 00-.838 1.287c-.179.463-.304.992-.338 1.764-.037.779-.045 1.026-.045 3.001s.008 2.222.043 2.998c.034.773.159 1.304.338 1.765.185.489.472.926.841 1.29.364.369.804.656 1.287.838.463.179.992.304 1.765.338.776.034 1.023.043 2.998.043s2.222-.008 2.998-.043c.773-.034 1.304-.159 1.764-.338a3.72 3.72 0 002.128-2.128c.179-.463.304-.992.338-1.765.034-.776.043-1.023.043-2.998s-.003-2.222-.037-2.998zm-1.309 5.938c-.031.71-.151 1.094-.25 1.35a2.409 2.409 0 01-1.381 1.381c-.256.099-.642.219-1.35.25-.767.034-.997.043-2.938.043s-2.174-.008-2.938-.043c-.71-.031-1.094-.15-1.35-.25a2.228 2.228 0 01-.835-.543 2.264 2.264 0 01-.543-.835c-.099-.256-.219-.642-.25-1.35-.034-.767-.043-.997-.043-2.938s.008-2.174.043-2.938c.031-.71.151-1.094.25-1.35.117-.315.301-.602.546-.835.236-.242.52-.426.835-.543.256-.099.642-.219 1.35-.25.767-.034.997-.043 2.938-.043 1.944 0 2.174.008 2.938.043.71.031 1.094.151 1.35.25.315.116.602.301.835.543.241.236.426.52.543.835.099.256.219.642.25 1.35.034.767.043.997.043 2.938s-.009 2.168-.043 2.935z"/><path fill="var(--color3, #afb1b8)" d="M16.027 12.265a3.737 3.737 0 10.003 7.475 3.737 3.737 0 00-.003-7.475zm0 6.16a2.424 2.424 0 110-4.849 2.424 2.424 0 010 4.849zM20.784 12.117a.872.872 0 11-1.744 0 .872.872 0 011.744 0z"/></symbol><symbol id="icon-linkedin" viewBox="0 0 32 32"><path fill="var(--color3, #afb1b8)" d="M23.269 23.273v-.001h.004v-5.335c0-2.61-.562-4.62-3.613-4.62-1.467 0-2.451.805-2.853 1.568h-.042v-1.324h-2.893v9.711h3.012v-4.809c0-1.266.24-2.49 1.808-2.49 1.545 0 1.568 1.445 1.568 2.572v4.728h3.009zM8.967 13.562h3.016v9.711H8.967v-9.711zM10.474 8.727c-.964 0-1.747.782-1.747 1.747s.782 1.763 1.747 1.763c.964 0 1.747-.799 1.747-1.763s-.783-1.747-1.747-1.747z"/></symbol><symbol id="icon-phone" viewBox="0 0 21 32"><path fill="var(--color4, #757575)" d="M18.133 0H3.2C1.435 0 0 1.298 0 2.894v25.083c0 1.596 1.435 2.894 3.2 2.894h14.933c1.765 0 3.2-1.298 3.2-2.894V2.894c0-1.596-1.435-2.894-3.2-2.894zM3.2 1.929h14.933c.589 0 1.067.432 1.067.965v20.259H2.133V2.894c0-.532.478-.965 1.067-.965zm14.933 27.012H3.2c-.589 0-1.067-.432-1.067-.965v-2.894H19.2v2.894c0 .532-.478.965-1.067.965z"/></symbol><symbol id="icon-plane" viewBox="0 0 32 32"><path fill="var(--color5, #fff)" d="M32 0L0 18l10.227 3.788L26 7 14.002 23.186l.01.004-.012-.004V32l5.735-6.691L27 28l5-28z"/></symbol><symbol id="icon-twitter" viewBox="0 0 32 32"><path fill="var(--color3, #afb1b8)" d="M23.273 11.49a6.248 6.248 0 01-1.718.471 2.967 2.967 0 001.312-1.648 5.963 5.963 0 01-1.891.722 2.981 2.981 0 00-5.158 2.039c0 .236.02.464.069.68a8.439 8.439 0 01-6.146-3.119 2.985 2.985 0 00.917 3.985 2.943 2.943 0 01-1.347-.367v.033a2.996 2.996 0 002.389 2.93 2.992 2.992 0 01-.782.098 2.64 2.64 0 01-.565-.051 3.01 3.01 0 002.786 2.077 5.991 5.991 0 01-3.697 1.272 5.59 5.59 0 01-.714-.041 8.393 8.393 0 004.575 1.338c5.487 0 8.487-4.545 8.487-8.485 0-.132-.005-.259-.011-.385a5.95 5.95 0 001.495-1.548z"/></symbol></defs></svg>